<svg id="Layer_1" data-name="Layer 1" xmlns="http://www.w3.org/2000/svg" viewBox="0 0 792 612"><defs><style>.cls-1{fill:#fff;}</style></defs><polygon class="cls-1" points="325.26 330.43 218.78 155.68 188.15 155.68 295.25 337.44 298.43 456.34 325.95 456.2 325.26 330.85 325.26 330.43"/><path class="cls-1" d="M563.07,194.24h0c-26.23-25.58-64.55-38.55-113.9-38.55H408.9l-.71-.33-.34.33H406.8v1.38L336.25,275,265.86,155.68H233.92L336.09,329l87.17-145.73h25.91c41.91,0,73.76,10.33,94.66,30.72s31.35,51,31.35,91.31c0,40-10.74,69.92-32.83,91.42-21.89,21.3-53.41,32.1-93.68,32.1H339.3v27.55H448.67c47.69,0,85.68-13.43,112.89-39.91s41.17-64,41.17-111.16C602.73,257.27,589.38,219.91,563.07,194.24Z"/></svg>